<svg version="1" xmlns="http://www.w3.org/2000/svg" width="240.2" height="42.8" viewBox="0 0 240.2 42.8"><path d="M120 20.8V13h-7.3v7.8h-6.2V.3h6.2v7.2h7.3V.3h6.2v20.4H120zm-69.2 0v-15h-5.5V.3h17.1v5.4H57v15h-6.2zm14.6 0V.3h15.5v5.4h-9.3v2h9.1v5.4h-9.1v2.2h9.3v5.4H65.4zm17.9-10.2C83.3 4.3 88.2 0 94.5 0c5.4 0 8.1 3.1 9.3 5.9l-5.3 2.5c-.5-1.6-2.1-3-3.9-3-3 0-5 2.3-5 5.1s2 5.1 5 5.1c1.8 0 3.4-1.4 3.9-3l5.3 2.4c-1.2 2.7-3.9 6-9.3 6-6.3.1-11.2-4.2-11.2-10.4zm72.6 0c0-6.3 4.9-10.6 11.2-10.6 6.3 0 11.2 4.3 11.2 10.6s-4.9 10.6-11.2 10.6c-6.3-.1-11.2-4.4-11.2-10.6zm16.1 0c0-2.8-1.9-5.1-4.9-5.1-3 0-4.9 2.3-4.9 5.1s1.9 5.1 4.9 5.1c3 0 4.9-2.3 4.9-5.1zm20.5 10.2l-2.8-6.4h-2.2v6.4h-6.2V.3h10.9c4.8 0 7.3 3.2 7.3 7 0 3.5-2.1 5.4-3.7 6.2l3.7 7.2h-7zm.7-13.5c0-1.1-1-1.6-2-1.6h-3.8v3.2h3.8c1 0 2-.5 2-1.6zm9.5 13.5V.3h6.2v15h7.7v5.4h-13.9zm17.2 0V.3h9.1c6.4 0 11.2 3.7 11.2 10.2 0 6.5-4.8 10.2-11.2 10.2h-9.1zM234 10.5c0-2.8-1.6-4.8-4.9-4.8h-3v9.6h2.9c3.1.1 5-2.2 5-4.8zM41.6 18.6l-1.1-2.2h.4l-.5-1.1h-.2l-.8-1.6c1.5-.8 3.6-2.7 3.6-6.3C43 3.5 40.4.3 35.6.3h-11v15h-.3v1.1h.6v2.2h-.3v2.2h6.2v-4.4h-.9v-1h.6v-.9H33l.4.9.4 1 1 2.3h.2l.9 2.1H43l-1.1-2.2h-.3zM30.8 9V5.8h3.8c1.1 0 2 .5 2 1.6s-1 1.6-2 1.6h-3.8zm-10 6.3h.4V.3h-6.3v7.3H7.5V.3H1.3v15h-1v1.1h2.1v2.2H1.3v2.2h6.2v-2.2h.9v-2.3H6.7v-1h.8v-2.2h7.4v2.2h-.5v1.1h1.2v2.2h-.7v2.2h6.3v-2.2h.4v-2.3h-.8z" fill="#fff"/><path fill="#0a9ed7" d="M141.7 10.6l3.1 10.2h-6.2"/><path fill="#8fc23f" d="M135.5 10.5L132.4.3h6.2"/><path fill="#dd1d44" d="M147.9 10.5l-3-10.2h6.1"/><path d="M2.6 36.4l-1 3H.4l3.2-9.5H5l3.2 9.5H7l-1-3H2.6zm3.1-1l-.9-2.7c-.2-.6-.4-1.2-.5-1.7-.1.6-.3 1.1-.5 1.7l-.9 2.7h2.8zm11.9-.2c-.1-1.3-.2-2.9-.1-4.1-.3 1.1-.7 2.3-1.2 3.6l-1.7 4.6h-.9l-1.5-4.5c-.4-1.3-.8-2.6-1.1-3.7 0 1.2-.1 2.8-.2 4.2l-.3 4.1H9.3l.7-9.5h1.6l1.6 4.6c.4 1.2.7 2.2 1 3.2.2-1 .6-2 1-3.2l1.7-4.6h1.6l.6 9.5h-1.2l-.3-4.2zm3.1 2.6c.5.3 1.3.6 2.2.6 1.2 0 2-.7 2-1.6 0-.9-.5-1.4-1.8-1.9-1.5-.5-2.5-1.3-2.5-2.7 0-1.5 1.2-2.6 3.1-2.6 1 0 1.7.2 2.1.5l-.3 1c-.3-.2-.9-.4-1.8-.4-1.3 0-1.8.8-1.8 1.4 0 .9.6 1.3 1.9 1.8 1.6.6 2.4 1.4 2.4 2.8 0 1.5-1.1 2.7-3.3 2.7-.9 0-1.9-.3-2.4-.6l.2-1zm8.9-6.9h-2.9v-1h7v1h-2.9v8.4h-1.2v-8.4zm10.1 4H36v3.4h4.1v1h-5.3v-9.5h5.1v1H36v3h3.7v1.1zm2-4.9c.6-.1 1.5-.2 2.3-.2 1.3 0 2.1.2 2.7.8.5.4.7 1.1.7 1.8 0 1.2-.8 2.1-1.8 2.4.7.3 1.2.9 1.4 1.9.3 1.3.5 2.2.7 2.6h-1.3c-.2-.3-.4-1.1-.6-2.3-.3-1.3-.8-1.8-1.9-1.8h-1.1v4.1h-1.2V30zm1.2 4.3h1.2c1.3 0 2.1-.7 2.1-1.8 0-1.2-.9-1.8-2.2-1.8-.6 0-1 .1-1.2.1v3.5zm6.3-4.3c.7-.1 1.6-.2 2.6-.2 1.8 0 3 .4 3.8 1.2.8.8 1.3 1.9 1.3 3.4s-.5 2.8-1.4 3.7c-.9.9-2.3 1.4-4.2 1.4-.9 0-1.6 0-2.2-.1V30zm1.2 8.4c.3.1.8.1 1.2.1 2.6 0 4-1.5 4-4 0-2.2-1.2-3.6-3.8-3.6-.6 0-1.1.1-1.4.1v7.4zm9.5-2l-1 3h-1.3l3.2-9.5h1.5l3.2 9.5h-1.3l-1-3h-3.3zm3.1-1l-.9-2.7c-.2-.6-.4-1.2-.5-1.7-.1.6-.3 1.1-.5 1.7l-.9 2.7H63zm11.8-.2c-.1-1.3-.2-2.9-.1-4.1-.3 1.1-.7 2.3-1.2 3.6l-1.7 4.6h-.9l-1.5-4.5c-.4-1.3-.8-2.6-1.1-3.7 0 1.2-.1 2.8-.2 4.2l-.3 4.1h-1.2l.7-9.5h1.6l1.6 4.6c.4 1.2.7 2.2 1 3.2.2-1 .6-2 1-3.2l1.7-4.6h1.6l.6 9.5h-1.2l-.4-4.2z" fill="#14a7e0"/><path d="M80.7 39.3v-.8l1-.9c2.3-2.2 3.4-3.4 3.4-4.8 0-.9-.4-1.8-1.8-1.8-.8 0-1.5.4-1.9.8l-.5-.8c.6-.5 1.5-.9 2.6-.9 2 0 2.8 1.3 2.8 2.7 0 1.7-1.2 3-3.1 4.9l-.7.7h4.1v1h-5.9zm11 0v-2.5h-4.2V36l4.1-5.8h1.3v5.7h1.3v1h-1.3v2.5h-1.2zm0-3.4v-4.4c-.3.5-.5.9-.8 1.3l-2.2 3.1h3zm6.6-1.9v.9h-3.5V34h3.5zm1.1 5.3v-.8l1-.9c2.3-2.2 3.4-3.4 3.4-4.8 0-.9-.4-1.8-1.8-1.8-.8 0-1.5.4-1.9.8l-.5-.8c.6-.5 1.5-.9 2.6-.9 2 0 2.8 1.3 2.8 2.7 0 1.7-1.2 3-3.1 4.9l-.7.7h4.1v1h-5.9zm12.6-8h-3.5l-.4 2.3c.2 0 .4-.1.7-.1.7 0 1.4.2 2 .5.7.4 1.3 1.2 1.3 2.3 0 1.8-1.4 3.1-3.4 3.1-1 0-1.8-.3-2.3-.6l.3-.9c.4.2 1.1.5 1.9.5 1.2 0 2.2-.8 2.2-2s-.8-2-2.6-2c-.5 0-.9.1-1.3.1l.6-4.4h4.4v1.2zm13.3 3.2c0 3.3-2 5-4.4 5-2.5 0-4.2-1.9-4.2-4.8 0-3 1.9-5 4.4-5 2.5 0 4.2 2 4.2 4.8zm-7.4.2c0 2 1.1 3.8 3 3.8s3-1.8 3-3.9c0-1.9-1-3.8-3-3.8-2-.1-3 1.8-3 3.9zm15.6 4.3c-.4.2-1.3.4-2.5.4-2.7 0-4.7-1.7-4.7-4.8 0-3 2-5 4.9-5 1.2 0 1.9.3 2.2.4l-.3 1c-.5-.2-1.1-.4-1.9-.4-2.2 0-3.7 1.4-3.7 3.9 0 2.3 1.3 3.8 3.6 3.8.7 0 1.5-.2 2-.4l.4 1.1zm3.7-8.1h-2.9v-1h7v1h-2.9v8.4h-1.2v-8.4zm12.9 3.6c0 3.3-2 5-4.4 5-2.5 0-4.2-1.9-4.2-4.8 0-3 1.9-5 4.4-5 2.5 0 4.2 2 4.2 4.8zm-7.4.2c0 2 1.1 3.8 3 3.8s3-1.8 3-3.9c0-1.9-1-3.8-3-3.8-2-.1-3 1.8-3 3.9zm8.9-4.7c.5-.1 1.4-.2 2.2-.2 1.2 0 2 .2 2.6.7.5.4.8.9.8 1.7 0 .9-.6 1.7-1.6 2.1.9.2 1.9 1 1.9 2.4 0 .8-.3 1.4-.8 1.9-.7.6-1.7.9-3.3.9-.8 0-1.5-.1-1.9-.1V30zm1.3 3.9h1.1c1.3 0 2-.7 2-1.6 0-1.1-.8-1.5-2.1-1.5-.6 0-.9 0-1.1.1v3zm0 4.5c.2 0 .6.1 1 .1 1.3 0 2.4-.5 2.4-1.8s-1.1-1.8-2.4-1.8h-1v3.5zm11.2-3.5h-3.7v3.4h4.1v1h-5.3v-9.5h5.1v1h-3.9v3h3.7v1.1zm2-4.9c.6-.1 1.5-.2 2.3-.2 1.3 0 2.1.2 2.7.8.5.4.7 1.1.7 1.8 0 1.2-.8 2.1-1.8 2.4.7.3 1.2.9 1.4 1.9.3 1.3.5 2.2.7 2.6H171c-.2-.3-.4-1.1-.6-2.3-.3-1.3-.8-1.8-1.9-1.8h-1.1v4.1h-1.2V30zm1.3 4.3h1.2c1.3 0 2.1-.7 2.1-1.8 0-1.2-.9-1.8-2.2-1.8-.6 0-1 .1-1.2.1v3.5zm8.8 5v-.8l1-.9c2.3-2.2 3.4-3.4 3.4-4.8 0-.9-.4-1.8-1.8-1.8-.8 0-1.5.4-1.9.8l-.4-.9c.6-.5 1.5-.9 2.6-.9 2 0 2.8 1.3 2.8 2.7 0 1.7-1.2 3-3.1 4.9l-.7.7h4.1v1h-6zm13.3-4.6c0 3.1-1.2 4.8-3.2 4.8-1.8 0-3-1.7-3-4.7 0-3.1 1.3-4.7 3.2-4.7 1.9 0 3 1.7 3 4.6zm-5 .1c0 2.4.7 3.7 1.9 3.7 1.3 0 1.9-1.5 1.9-3.8 0-2.2-.6-3.7-1.9-3.7-1.1 0-1.9 1.3-1.9 3.8zm8.8-3.4l-1.6.9-.2-.9 2-1.1h1.1v9.1h-1.2v-8zm10.4-1.2v.8l-4 8.3h-1.3l4-8.1H198v-1h5.7z" fill="#fff"/></svg>