<svg xmlns="http://www.w3.org/2000/svg" width="220" height="75" viewBox="0 0 220 75"><defs><style>.cls-1{fill:#f09d31}.cls-2{fill:#2268ac}</style></defs><title>workday</title><g id="workday"><path class="cls-1" d="M113.17 11.88c-15.65.68-27.13 7.83-34.05 22 0 .09-.08.19-.12.28-.69 1.46-1.7 2-2.88 1.41s-1.45-1.64-.64-3a77.89 77.89 0 0 1 6.29-9.88A38.41 38.41 0 0 1 107 8.59c14.89-2 27.49 2.71 37.5 14a37.8 37.8 0 0 1 6.5 10.5 1.76 1.76 0 0 1-1 2.54 1.87 1.87 0 0 1-2.56-1c-.17-.31-.3-.65-.45-1a36 36 0 0 0-8.19-11.49 36.68 36.68 0 0 0-21.15-10c-.76-.09-1.51-.22-2.27-.26s-1.45 0-2.21 0z"/><path class="cls-2" d="M50.21 43.93c-.07.51-.09 1-.21 1.52-.37 1.62-.74 3.24-1.16 4.84-.66 2.56-1.37 5.1-2.05 7.65-.2.75-.39.9-1.16.9h-3c-.53 0-.71-.13-.85-.65l-4.2-15.32c-.2-.72 0-1 .75-1h1.82c.61 0 .81.17 1 .79q.69 2.83 1.38 5.67c.46 1.9.94 3.8 1.36 5.71.19.89.25 1.81.37 2.72a1.11 1.11 0 0 0 .16.51c.13-.74.21-1.49.39-2.22.48-2 1-3.89 1.51-5.84.58-2.18 1.16-4.35 1.75-6.53.17-.63.39-.81 1-.82h2.56a.87.87 0 0 1 .91.73c1.07 3.91 2.14 7.83 3.18 11.75.22.83.3 1.7.44 2.55a.62.62 0 0 0 .16.36c.07-.51.13-1 .23-1.53.37-1.87.73-3.74 1.14-5.6.54-2.52 1.12-5 1.69-7.54a.76.76 0 0 1 .82-.71h2.05c.68 0 .73.3.59.82l-3.77 14c-.13.5-.27 1-.41 1.49a.83.83 0 0 1-.89.69h-3.2c-.49 0-.66-.17-.82-.75-.78-2.9-1.55-5.8-2.34-8.69a28 28 0 0 1-1.08-5.45zm85.02.07v-9.32c0-.63.26-.89.89-.9h1.43c.62 0 .9.29.9.9v23.11a.79.79 0 0 1-.89.91h-1a.84.84 0 0 1-.88-.71c-.11-.44-.22-.89-.35-1.4l-.4.47a5.17 5.17 0 0 1-3.72 1.89 7.71 7.71 0 0 1-3.32-.36 5.53 5.53 0 0 1-3.31-3.33 10.65 10.65 0 0 1-.75-3.54 16.62 16.62 0 0 1 .3-5 6.12 6.12 0 0 1 5-5 5.49 5.49 0 0 1 5.84 2.1 2.08 2.08 0 0 1 .13.23zm-7.95 6.35v1.24a9.34 9.34 0 0 0 .54 2.91 3.13 3.13 0 0 0 1.76 2 3.79 3.79 0 0 0 5.05-2 6.85 6.85 0 0 0 .28-.8 13.23 13.23 0 0 0 .29-4.91 7.67 7.67 0 0 0-.82-2.84A3.61 3.61 0 0 0 130 44a3.26 3.26 0 0 0-2.27 2.43 11.59 11.59 0 0 0-.45 3.9zm-18.9-.64l1-1.13 5.64-6.24a1.29 1.29 0 0 1 1-.46h2.25c.25 0 .55 0 .59.31a.82.82 0 0 1-.23.59q-3.29 3.32-6.61 6.6a4.28 4.28 0 0 1-.45.34l2.12 2.46 4.94 5.71c.17.2.4.43.21.67a.92.92 0 0 1-.62.26h-2.25a1.36 1.36 0 0 1-1.19-.58l-6.11-7.72-.37-.52v7.82c0 .71-.27 1-1 1h-1.4a.75.75 0 0 1-.85-.86V34.7c0-.57.21-.81.78-.83s1.06 0 1.59 0 .86.28.86.94v14.84zm63.2 4.88c.41-1.3.79-2.51 1.19-3.72l2.66-8.2a.93.93 0 0 1 1-.78h2c.66 0 .79.3.6.85l-6.46 18.46a6.75 6.75 0 0 1-4.19 4.27c-.31.12-.63.24-.95.34a.93.93 0 0 1-1.19-.43l-.44-.69a.72.72 0 0 1 .3-1.07l.15-.05a5.59 5.59 0 0 0 3.61-3.66 2.77 2.77 0 0 0 0-2.35c-2.16-4.9-4.25-9.82-6.37-14.73-.29-.67-.12-.94.61-1s1.34 0 2 0a1 1 0 0 1 1.06.74c1.3 3.41 2.6 6.81 3.89 10.23.24.59.36 1.2.53 1.79zm-15.3 1.95l-.34.41a4.83 4.83 0 0 1-4 2 7 7 0 0 1-7.43-6.11 12 12 0 0 1 .52-6.85 6.69 6.69 0 0 1 5.79-4.33 8.46 8.46 0 0 1 4.51.57 6.36 6.36 0 0 1 3.72 4.77 17.52 17.52 0 0 1 .39 3.45v7.36c0 .67-.25.91-.9.92h-1a.79.79 0 0 1-.85-.69c-.18-.49-.28-.95-.41-1.5zm.08-6.25c-.11-1-.16-1.93-.35-2.87-.53-2.63-2.22-3.82-4.87-3.46a3.46 3.46 0 0 0-3 2.84 13.53 13.53 0 0 0 0 7 3.52 3.52 0 0 0 3.38 2.9 3.76 3.76 0 0 0 4.17-2.48 12.87 12.87 0 0 0 .67-3.93zm-73.1-.06a10.48 10.48 0 0 1-1.43 5.37 7.08 7.08 0 0 1-5.41 3.32 9.26 9.26 0 0 1-3.76-.26 6.8 6.8 0 0 1-4.52-3.78 10.57 10.57 0 0 1 0-9.28 6.93 6.93 0 0 1 5.74-3.94 9.13 9.13 0 0 1 4.17.35 7.13 7.13 0 0 1 4.83 5.58c.23.87.27 1.76.38 2.64zm-12.72 0c.07.76.11 1.52.22 2.27a5.64 5.64 0 0 0 1.18 2.86 4.11 4.11 0 0 0 4 1.31 3.74 3.74 0 0 0 3.22-2.81 13.46 13.46 0 0 0 .5-2.86 9.59 9.59 0 0 0-.66-4.6 4.27 4.27 0 0 0-7.82 0 10.43 10.43 0 0 0-.64 3.84zm21.96-5.95c.26-.3.47-.57.71-.82a5.23 5.23 0 0 1 4.44-1.85A4.21 4.21 0 0 1 99 42a.68.68 0 0 1 .39.93c-.12.45-.25.89-.39 1.33a.83.83 0 0 1-1.06.6l-2-.38a2.31 2.31 0 0 0-2.25.83 4.39 4.39 0 0 0-1.14 3c0 3.22 0 6.43-.06 9.65 0 .53-.14.82-.58.86a12.58 12.58 0 0 1-2.12 0c-.44 0-.61-.36-.61-.89V42.87c0-.74.23-1 1-1h1a.76.76 0 0 1 .76.6l.44 1.53c.03.05.07.15.12.28zm90.62 12.09a2.49 2.49 0 1 1-2.48-2.43 2.44 2.44 0 0 1 2.48 2.43zm-4.36 0a1.88 1.88 0 0 0 1.89 1.94 1.86 1.86 0 0 0 1.85-1.92 1.87 1.87 0 1 0-3.74 0zm1.49 1.27h-.56v-2.43a4.91 4.91 0 0 1 .93-.07 1.51 1.51 0 0 1 .84.18.67.67 0 0 1 .24.53.62.62 0 0 1-.5.56.72.72 0 0 1 .44.59 1.85 1.85 0 0 0 .18.61h-.61A2.08 2.08 0 0 1 181 57c0-.27-.19-.38-.5-.38h-.27zm0-1.38h.27c.31 0 .56-.1.56-.35s-.16-.37-.52-.37a1.35 1.35 0 0 0-.31 0z"/></g></svg>